
<svg xmlns="http://www.w3.org/2000/svg" version="1.1" xmlns:xlink="http://www.w3.org/1999/xlink" preserveAspectRatio="none" x="0px" y="0px" width="210px" height="630px" viewBox="0 0 210 630">
<defs>
<g id="Layer0_0_MEMBER_0_MEMBER_0_MEMBER_0_FILL">
<path fill="#FFFFFF" stroke="none" d="
M 22.85 112.85
Q 22.15 111.9 21.25 111.45 20.35 111.25 19.6 111.25 18.4 111.25 17.95 111.45 16.75 111.6 15.75 112.45 14.55 113.25 13.8 114.2 12.95 115.2 12.6 116.6 12.5 116.75 12.35 118.45 12.35 119.45 12.5 119.95
L 13.4 122.35
Q 14.4 123.65 16.75 124 18.35 124.3 20.25 124.2 22 124.05 22.5 123.75 24.15 123.15 24.85 121.7 25.6 120.4 25.35 118.35 25.25 117.3 24.25 115.1
L 22.85 112.85
M 20.6 117.6
Q 21.4 118.2 21.25 119.1 21.25 119.45 20.85 119.95 20.5 120.45 20.1 120.6 19.9 120.75 19 120.85 18.1 120.85 17.7 120.5 17.45 120.4 16.75 119.45
L 16.35 118.5
Q 16.25 117.55 17 116.95 17.65 116.35 18.6 116.75
L 19.35 117.2 20.6 117.6
M 48.95 111.25
Q 48.3 110.95 47.25 110.95 44.65 110.95 42.25 112.45
L 40.65 113.45
Q 39.7 114.1 39.25 114.7 38.65 115.55 38.45 117.1 38.1 119.3 38.75 120.7 39.55 122.2 41.75 123 43.05 123.6 44.4 123.85 45.25 124.05 46 123.85 46.65 123.5 46.75 123
L 47 122.6 47.55 122.35
Q 50.2 121.9 51.15 119.85 51.4 119.25 51.5 117.35 51.5 113.75 50.25 112.2 49.8 111.65 48.95 111.25
M 45.9 116.6
L 46.7 117.5
Q 46.95 118.35 46.75 118.7 46.6 119.3 45.9 119.6 44.9 120.05 44 119.7 43.05 119.4 42.75 118.45 42.5 117.7 42.95 117.1 43.3 116.4 44.15 116.1 44.45 116 45 116 45.4 116.1 45.9 116.6
M 25.85 91.5
Q 25.25 92.8 25 93.1 23.95 95.4 21.75 97.7 19.8 99.7 17.75 100.35
L 14.55 100.95
Q 11.45 101.45 10.55 103.2 10.1 103.95 10.1 106.2
L 10.3 109.6
Q 10.4 112.15 11.65 112.6 12.65 113 14.35 112 17.35 110.5 19.85 110.35 23.15 110.2 25.35 111.95 27.15 113.3 28.2 116.1 28.65 117.8 29.35 118.2 30.2 118.9 32.4 118.2 33.75 117.75 34.5 117.35 35.65 116.85 36.25 116 36.9 114.9 37.5 114.2 37.9 113.6 39.65 112.45 43.85 110 46.05 109.45 49.75 108.5 56.45 110 58.95 110.7 60 109.7 60.6 109.1 60.75 107.7 61.6 102.75 59.7 97.95 58.25 94.5 56 92.1
L 54.5 93.5
Q 52.8 95.25 51.7 96.1
L 51.15 96.45
Q 50.55 97.2 50.05 97.35 49.95 97.45 49.7 97.45
L 46.5 100
Q 45.4 100.85 44.8 100.85 44.25 100.85 43.9 100.6 43.5 100.85 43 100.85 42.35 100.85 42 100.45 41.1 99.7 41.55 98.45 41.75 97.8 42.75 96.6 45.05 93.9 50.3 88.5 48.1 87.6 45.05 87.2 41.3 86.75 35.8 87.35 31.5 87.95 29.35 88.75 27.65 89.4 26.95 90.1 26.45 90.5 25.85 91.5
M 49.5 31.65
Q 49.5 30.7 48.8 29.9 48.15 29.25 47.2 29.25
L 44.4 29.25 44.4 23.9
Q 44.4 20.45 41.7 17.75 38.8 14.85 34.9 14.75 31.1 14.75 28.1 17.65 25.35 20.55 25.35 23.9
L 25.35 29.25 22.75 29.25
Q 21.9 29.25 21.1 29.9 20.5 30.6 20.5 31.5
L 20.5 48.8
Q 20.5 49.85 21.1 50.5 21.85 51.1 22.75 51.1
L 47.2 51.1
Q 48.2 51.1 48.8 50.5 49.5 49.8 49.5 48.8
L 49.5 31.65
M 40.9 24
L 40.9 29.4 28.85 29.4 28.85 24
Q 28.85 22.05 30.5 20.3 32.2 18.4 34.9 18.4 37.55 18.4 39.25 20.3 40.9 22.05 40.9 24 Z"/>
</g>

<g id="Layer0_1_FILL">
<path fill="#FFFFFF" stroke="none" d="
M 86.95 92.75
Q 84.05 96.55 82.8 98.9 80.9 102.6 81.1 105.95 81.15 107.6 81.9 110.1 84.3 118.2 88.75 121.25 90.1 122.15 92.65 123.3 95.95 124.75 97.85 125.4 100.75 126.4 103.25 126.55 106.35 126.75 111.8 125.5 113.65 125.1 114.35 124.4 114.95 123.7 115.3 123.35 115.45 123.2 117.15 122.15 119.4 120.95 121.5 118.5 122.8 116.95 124.9 113.8 127.8 109.35 128.5 106.7 129.35 103.2 128.35 99.05 127.6 95.95 125.65 91.85 124.6 89.5 123.7 88.2 122.4 86.25 120.85 85.25 118.75 83.95 115.1 83.6 104.45 82.55 94.55 86.6 92.2 87.65 91 88.5 89.3 89.75 86.95 92.75
M 94.25 90.1
Q 95.95 89.2 97.55 88.65 105.45 85.85 114.45 86.55 117.65 86.85 119.2 87.85 121.1 89.1 122.8 92.9 124.6 96.7 125.25 99.05 126.2 102.55 125.65 105.4 125.1 108 122.25 112.35 120.55 114.95 119.55 116.2 117.85 118.2 116.1 119.25 114.35 120.15 113.55 120.7 113.05 121.05 112.05 121.85 111.15 122.5 110.4 122.6 109.85 122.7 108.85 122.6 107.7 122.5 107.25 122.55 106.65 122.65 105.65 123 104.55 123.4 104.05 123.5 103.1 123.65 101.4 123.3 99.3 122.8 94.4 120.75 91.45 119.5 90 118.4 88.05 116.85 86.65 114.1 85.65 112.1 84.75 108.85 84 106.3 84.1 104.75 84.3 102.6 85.95 99.7 89.9 92.6 94.25 90.1
M 107.7 96.15
Q 105 96.6 102.8 97.85 101.8 98.35 101.15 99 100.4 99.7 99.9 100.65 98.4 103.5 98.9 107.3 99.1 108.6 99.4 109.2 100.3 111.05 102.3 111.45 103.7 111.7 106.5 111.2
L 108.45 111.15
Q 109.4 111.1 111.35 110.35 112.95 109.65 113.6 109.05 114.05 108.65 114.95 107.3
L 115.8 105.75
Q 116.7 103.45 115.7 100.45 115 98.3 113.8 97.3 111.65 95.4 107.7 96.15
M 109.85 92.7
Q 110.25 93 110.75 93 111.6 93 112 92.35 112.4 91.6 112.1 90.9 111.85 90.45 111.3 90.25 110.8 90 110.3 90.15 109.5 90.4 109.3 91.3 109.15 92.15 109.85 92.7
M 97.75 90.9
L 96.6 91.25
Q 95.75 91.55 95.05 92.05 93.95 92.85 92.8 95.1
L 92.4 95.9 92.2 97.05
Q 92.1 98.6 92.7 99.2 93.15 99.55 93.6 99.55 94.45 99.65 95 99.15 95.6 98.6 95.45 97.85
L 95.25 97.2
Q 95.25 96.85 95.55 96.35 96.25 95.05 96.85 94.65 97.15 94.45 97.95 94.1 99.3 93.55 100.6 93.4
L 102.4 93.25
Q 103.45 93.05 103.8 92.25 104.25 91.35 103.5 90.7 103 90.25 102 90.25
L 100.6 90.35 97.75 90.9
M 187.35 96.65
Q 182.55 90.3 181 87.65 178.8 83.45 177.5 81.45 176.65 80.15 175.8 79.8 174.35 79.2 171.95 80.95 168.15 83.85 166.3 85.4 164.7 86.7 164 87.45 162.85 88.55 161.05 90.95 156.2 97.4 152.2 104.45 150.15 108.15 149.35 110.8 148.25 114.45 148.9 117.45 149.45 119.85 151 120.8 151.95 121.45 154.35 121.65 161.85 122.2 171.25 122.35 176.85 122.4 188.1 122.3 192.8 122.2 194.5 121.95 198.25 121.5 200.25 119.85 201.1 119.1 201.25 118.5 201.6 117.25 200.45 116 199.95 115.4 198.95 114.6 197.85 113.7 197.45 113.3 196.15 112.05 195.05 109.8 193.9 107.15 193.25 105.85 191.55 102.25 187.35 96.65 Z"/>
</g>
</defs>

<g transform="matrix( 1, 0, 0, 1, 0,0) ">
<use xlink:href="#Layer0_0_MEMBER_0_MEMBER_0_MEMBER_0_FILL"/>
</g>

<g transform="matrix( 1, 0, 0, 1, 0,0) ">
<use xlink:href="#Layer0_1_FILL"/>
</g>
</svg>
